<?xml version="1.0" encoding="UTF-8" standalone="no"?><!DOCTYPE svg PUBLIC "-//W3C//DTD SVG 1.1//EN" "http://www.w3.org/Graphics/SVG/1.1/DTD/svg11.dtd"><svg width="450px" height="153px" viewBox="0 0 450 153" version="1.1" xmlns="http://www.w3.org/2000/svg" xmlns:xlink="http://www.w3.org/1999/xlink" xml:space="preserve" xmlns:serif="http://www.serif.com/" style="fill-rule:evenodd;clip-rule:evenodd;stroke-linejoin:round;stroke-miterlimit:2;"><path d="M0,0l45.714,0c-0.003,15.238 -0,30.476 -0.003,45.714l-45.711,-0l0,-45.714Z" style="fill:#f25022;fill-rule:nonzero;"/><path d="M50.381,0l45.714,0c0,15.238 0.003,30.476 -0.003,45.714c-15.235,-0.003 -30.473,-0 -45.708,-0c-0.005,-15.238 -0.003,-30.476 -0.003,-45.714Z" style="fill:#80ba01;fill-rule:nonzero;"/><path d="M412.235,17.418c4.214,-2.743 9.659,-2.998 14.408,-1.691c0.042,2.822 0.006,5.647 0.02,8.473c-2.257,-0.994 -4.912,-1.642 -7.287,-0.668c-1.884,0.747 -3.004,2.68 -3.298,4.613c-0.354,2.452 -0.123,4.936 -0.184,7.402c4.822,0.011 9.643,0.003 14.464,0.005c0.036,-3.129 -0.038,-6.262 0.041,-9.392c3.279,-0.934 6.521,-1.98 9.783,-2.963c0.027,4.124 -0.039,8.251 0.036,12.377c3.259,-0.046 6.52,-0.011 9.782,-0.022l-0,8.029c-3.273,-0.135 -6.548,-0.036 -9.821,-0.047c0.014,4.615 0.003,9.23 0.006,13.849c0.052,2.556 -0.138,5.126 0.162,7.673c0.181,1.502 0.727,3.166 2.136,3.943c2.358,1.321 5.351,0.744 7.517,-0.706l-0,8.108c-2.825,1.227 -5.983,1.601 -9.038,1.384c-2.9,-0.214 -5.903,-1.269 -7.795,-3.575c-2.186,-2.605 -2.748,-6.133 -2.792,-9.434c-0.025,-7.083 0.002,-14.167 -0.011,-21.253c-4.824,-0.003 -9.648,-0.006 -14.47,0.003c-0.005,11.116 -0.002,22.233 -0.002,33.35l-9.887,0c-0,-11.114 -0.014,-22.225 0.005,-33.339c-2.292,-0.044 -4.588,0.011 -6.88,-0.036c0.008,-2.639 0.019,-5.28 -0.006,-7.921c2.282,-0.052 4.566,-0.03 6.853,-0.014c0.168,-3.509 -0.367,-7.119 0.681,-10.537c0.887,-3.086 2.858,-5.87 5.577,-7.611Z" style="fill:#777;fill-rule:nonzero;"/><path d="M200.556,17.995c1.993,-0.303 4.151,0.378 5.472,1.938c1.549,1.708 1.834,4.426 0.686,6.422c-1.268,2.251 -4.107,3.297 -6.581,2.756c-2.567,-0.461 -4.706,-2.847 -4.59,-5.507c-0.074,-2.801 2.268,-5.296 5.013,-5.609Z" style="fill:#777;fill-rule:nonzero;"/><path d="M124.786,19.219l14.379,0c4.475,11.364 8.984,22.717 13.464,34.081c1.145,2.842 2.216,5.716 3.416,8.536c5.757,-14.2 11.597,-28.365 17.311,-42.584c4.61,-0.074 9.222,-0.016 13.835,-0.027c-0.011,19.216 -0.006,38.432 -0.003,57.648c-3.328,-0.008 -6.653,0.028 -9.978,-0.019c0.036,-14.181 -0.002,-28.362 0.017,-42.545c0.005,-0.637 -0.017,-1.274 -0.06,-1.911c-0.195,0.296 -0.368,0.604 -0.519,0.922c-5.714,14.516 -11.537,28.991 -17.218,43.52c-2.367,0.086 -4.736,0.006 -7.105,0.044c-5.895,-14.515 -11.716,-29.064 -17.58,-43.591c-0.154,-0.302 -0.319,-0.596 -0.497,-0.879c-0.121,6.214 -0.02,12.432 -0.052,18.645c0.002,8.605 -0.006,17.21 0.002,25.814c-3.138,0.009 -6.276,0 -9.412,0.003c-0.002,-19.219 -0.005,-38.438 0,-57.657Z" style="fill:#777;fill-rule:nonzero;"/><path d="M227.765,35.514c4.772,-1.359 9.917,-1.304 14.686,0.044c0.983,0.275 1.936,0.656 2.82,1.175c-0.055,3.149 -0,6.301 -0.031,9.453c-3.187,-2.435 -7.231,-3.978 -11.284,-3.468c-3.218,0.291 -6.287,1.961 -8.212,4.561c-2.474,3.223 -3.045,7.503 -2.619,11.446c0.318,3.086 1.595,6.169 3.995,8.215c2.493,2.216 5.988,3.001 9.249,2.754c3.224,-0.371 6.266,-1.735 8.871,-3.641c0.028,2.985 -0.013,5.969 0.022,8.953c-4.041,2.406 -8.887,3.026 -13.513,2.798c-4.734,-0.25 -9.453,-2.043 -12.88,-5.37c-3.723,-3.589 -5.744,-8.706 -5.982,-13.832c-0.242,-5.33 0.842,-10.889 3.909,-15.34c2.57,-3.797 6.59,-6.485 10.969,-7.748Z" style="fill:#777;fill-rule:nonzero;"/><path d="M335.762,34.885c4.571,-0.804 9.357,-0.214 13.684,1.425c0.006,3.031 0,6.06 0.003,9.088c-3.023,-2.078 -6.716,-3.196 -10.384,-3.067c-1.848,0.072 -3.88,0.854 -4.722,2.611c-0.67,1.738 -0.206,4.017 1.433,5.058c2.803,1.875 6.147,2.671 9.052,4.351c2.287,1.285 4.505,2.966 5.664,5.387c2.177,4.536 1.255,10.53 -2.573,13.912c-3.654,3.416 -8.917,4.36 -13.758,4.179c-3.437,-0.223 -6.891,-0.901 -10.051,-2.306c0.014,-3.188 -0.019,-6.373 0.016,-9.558c2.658,1.93 5.725,3.311 8.97,3.871c2.26,0.368 4.717,0.385 6.823,-0.626c2.015,-1.002 2.378,-3.865 1.18,-5.617c-1.12,-1.351 -2.764,-2.095 -4.316,-2.825c-2.913,-1.31 -5.974,-2.405 -8.533,-4.368c-1.798,-1.403 -3.16,-3.38 -3.693,-5.61c-0.79,-3.286 -0.543,-6.99 1.368,-9.862c2.182,-3.347 5.974,-5.354 9.837,-6.043Z" style="fill:#777;fill-rule:nonzero;"/><path d="M373.549,34.789c4.934,-0.612 10.173,-0.28 14.676,1.993c3.926,1.964 6.971,5.511 8.492,9.613c1.188,3.138 1.606,6.526 1.537,9.867c0.008,4.992 -1.34,10.115 -4.472,14.074c-2.933,3.833 -7.419,6.323 -12.155,7.106c-4.632,0.749 -9.524,0.554 -13.926,-1.178c-4.458,-1.755 -8.165,-5.335 -10.043,-9.744c-1.958,-4.495 -2.163,-9.552 -1.554,-14.354c0.64,-4.802 2.814,-9.497 6.521,-12.69c3.036,-2.666 6.946,-4.176 10.924,-4.687Zm2.669,7.869c2.792,-0.195 5.774,0.45 7.921,2.337c1.98,1.641 3.075,4.101 3.578,6.578c0.565,2.905 0.56,5.911 0.082,8.83c-0.379,2.174 -1.131,4.343 -2.556,6.065c-1.436,1.729 -3.572,2.784 -5.777,3.108c-2.367,0.354 -4.86,0.184 -7.072,-0.769c-2.389,-1.01 -4.24,-3.078 -5.214,-5.456c-1.173,-2.833 -1.406,-5.971 -1.173,-9.002c0.225,-2.935 1.057,-5.947 2.996,-8.229c1.768,-2.13 4.481,-3.308 7.215,-3.462Z" style="fill:#777;"/><path d="M294.848,34.789c4.934,-0.612 10.173,-0.28 14.675,1.993c3.927,1.964 6.971,5.511 8.492,9.613c1.189,3.138 1.607,6.526 1.538,9.867c0.008,4.992 -1.34,10.115 -4.473,14.074c-2.932,3.833 -7.418,6.323 -12.154,7.106c-4.632,0.749 -9.525,0.554 -13.926,-1.178c-4.459,-1.755 -8.165,-5.335 -10.043,-9.744c-1.958,-4.495 -2.164,-9.552 -1.554,-14.354c0.64,-4.802 2.814,-9.497 6.521,-12.69c3.036,-2.666 6.946,-4.176 10.924,-4.687Zm2.669,7.869c2.792,-0.195 5.774,0.45 7.921,2.337c1.979,1.641 3.075,4.101 3.577,6.578c0.566,2.905 0.561,5.911 0.083,8.83c-0.379,2.174 -1.131,4.343 -2.556,6.065c-1.436,1.729 -3.572,2.784 -5.777,3.108c-2.367,0.354 -4.86,0.184 -7.073,-0.769c-2.388,-1.01 -4.239,-3.078 -5.213,-5.456c-1.173,-2.833 -1.406,-5.971 -1.173,-9.002c0.225,-2.935 1.057,-5.947 2.996,-8.229c1.768,-2.13 4.48,-3.308 7.215,-3.462Z" style="fill:#777;"/><path d="M267.378,36.187c2.729,-1.639 6.197,-1.777 9.176,-0.775c-0.014,3.298 -0,6.595 -0.009,9.893c-1.949,-1.263 -4.381,-1.804 -6.682,-1.571c-2.806,0.319 -5.03,2.474 -6.183,4.945c-1.252,2.617 -1.488,5.576 -1.409,8.437c0,6.587 0.003,13.174 0,19.76l-9.747,0c-0.008,-13.766 0.011,-27.535 -0.008,-41.302c3.254,-0.041 6.507,-0.024 9.761,-0.008c-0.014,2.364 -0,4.728 -0.009,7.095c1.058,-2.573 2.631,-5.071 5.11,-6.474Z" style="fill:#777;fill-rule:nonzero;"/><path d="M196.441,35.566c3.278,-0.014 6.559,-0.046 9.837,0.017c-0.039,13.763 -0.003,27.53 -0.017,41.293l-9.815,0c-0.008,-13.769 0.003,-27.538 -0.005,-41.31Z" style="fill:#777;fill-rule:nonzero;"/><path d="M0,50.379c15.238,0.005 30.476,-0.003 45.714,0.005c0.003,15.238 -0,30.473 -0,45.711l-45.714,0l0,-45.716Z" style="fill:#02a4ef;fill-rule:nonzero;"/><path d="M50.384,50.384c15.235,-0.005 30.473,-0.003 45.711,-0.003l0,45.714l-45.714,0c0.003,-15.238 -0.002,-30.476 0.003,-45.711Z" style="fill:#ffb902;fill-rule:nonzero;"/><g><path d="M122.352,141.977l14.144,-36.83l5.25,-0l15.074,36.83l-5.552,-0l-4.296,-11.155l-15.4,0l-4.045,11.155l-5.175,-0Zm10.627,-15.124l12.486,-0l-3.844,-10.2c-1.173,-3.099 -2.043,-5.644 -2.613,-7.638c-0.469,2.362 -1.13,4.707 -1.985,7.035l-4.044,10.803Z" style="fill:#777;fill-rule:nonzero;"/><path d="M177.446,141.977l0,-3.367c-1.692,2.646 -4.179,3.97 -7.461,3.97c-2.128,-0 -4.083,-0.587 -5.867,-1.759c-1.783,-1.172 -3.165,-2.81 -4.145,-4.911c-0.98,-2.102 -1.47,-4.518 -1.47,-7.248c0,-2.663 0.444,-5.079 1.332,-7.248c0.888,-2.169 2.219,-3.832 3.994,-4.987c1.776,-1.156 3.761,-1.734 5.955,-1.734c1.607,0 3.039,0.339 4.296,1.018c1.256,0.678 2.277,1.562 3.065,2.65l-0,-13.214l4.497,-0l-0,36.83l-4.196,-0Zm-14.295,-13.315c0,3.416 0.72,5.97 2.161,7.662c1.44,1.692 3.14,2.537 5.1,2.537c1.976,0 3.655,-0.808 5.037,-2.424c1.382,-1.616 2.072,-4.082 2.072,-7.399c0,-3.651 -0.703,-6.331 -2.11,-8.039c-1.407,-1.708 -3.14,-2.562 -5.2,-2.562c-2.01,-0 -3.689,0.82 -5.037,2.462c-1.349,1.641 -2.023,4.229 -2.023,7.763Z" style="fill:#777;fill-rule:nonzero;"/><path d="M196.163,141.977l-10.15,-26.681l4.773,0l5.728,15.978c0.62,1.725 1.189,3.518 1.709,5.377c0.402,-1.407 0.963,-3.099 1.683,-5.075l5.929,-16.28l4.648,0l-10.1,26.681l-4.22,-0Z" style="fill:#777;fill-rule:nonzero;"/><path d="M232.741,133.385l4.673,0.577c-0.737,2.731 -2.102,4.849 -4.095,6.357c-1.993,1.507 -4.539,2.261 -7.637,2.261c-3.902,-0 -6.997,-1.202 -9.283,-3.605c-2.286,-2.404 -3.429,-5.775 -3.429,-10.112c-0,-4.489 1.155,-7.973 3.467,-10.452c2.311,-2.478 5.309,-3.718 8.994,-3.718c3.567,0 6.481,1.215 8.742,3.643c2.261,2.429 3.392,5.845 3.392,10.25c0,0.268 -0.008,0.67 -0.025,1.206l-19.897,0c0.167,2.931 0.996,5.175 2.487,6.733c1.49,1.558 3.349,2.336 5.577,2.336c1.658,0 3.073,-0.435 4.246,-1.306c1.172,-0.871 2.102,-2.261 2.788,-4.17Zm-14.847,-7.311l14.898,-0c-0.201,-2.244 -0.771,-3.928 -1.709,-5.05c-1.44,-1.742 -3.308,-2.613 -5.602,-2.613c-2.077,0 -3.823,0.696 -5.238,2.086c-1.415,1.39 -2.198,3.249 -2.349,5.577Z" style="fill:#777;fill-rule:nonzero;"/><path d="M243.042,141.977l-0,-26.681l4.07,0l-0,4.045c1.038,-1.893 1.997,-3.14 2.876,-3.743c0.88,-0.603 1.847,-0.905 2.902,-0.905c1.524,0 3.073,0.486 4.648,1.457l-1.558,4.196c-1.105,-0.653 -2.211,-0.98 -3.316,-0.98c-0.988,0 -1.876,0.297 -2.663,0.892c-0.787,0.595 -1.348,1.419 -1.683,2.475c-0.503,1.607 -0.754,3.366 -0.754,5.275l-0,13.969l-4.522,-0Z" style="fill:#777;fill-rule:nonzero;"/><path d="M270.099,137.932l0.653,3.994c-1.273,0.268 -2.411,0.402 -3.416,0.402c-1.642,0 -2.915,-0.259 -3.819,-0.778c-0.904,-0.52 -1.541,-1.202 -1.909,-2.048c-0.369,-0.846 -0.553,-2.625 -0.553,-5.339l-0,-15.35l-3.316,0l-0,-3.517l3.316,0l-0,-6.607l4.497,-2.713l-0,9.32l4.547,0l0,3.517l-4.547,0l-0,15.602c-0,1.289 0.079,2.118 0.239,2.487c0.159,0.368 0.418,0.661 0.778,0.879c0.36,0.218 0.875,0.327 1.545,0.327c0.503,-0 1.164,-0.059 1.985,-0.176Z" style="fill:#777;fill-rule:nonzero;"/><path d="M274.546,110.347l-0,-5.2l4.522,-0l-0,5.2l-4.522,0Zm-0,31.63l-0,-26.681l4.522,0l-0,26.681l-4.522,-0Z" style="fill:#777;fill-rule:nonzero;"/><path d="M284.143,134.013l4.472,-0.704c0.251,1.792 0.95,3.166 2.097,4.12c1.148,0.955 2.751,1.432 4.811,1.432c2.077,0 3.618,-0.422 4.623,-1.268c1.005,-0.846 1.507,-1.838 1.507,-2.977c0,-1.022 -0.443,-1.826 -1.331,-2.412c-0.62,-0.402 -2.161,-0.913 -4.623,-1.533c-3.316,-0.837 -5.615,-1.561 -6.896,-2.173c-1.281,-0.611 -2.253,-1.457 -2.914,-2.537c-0.662,-1.08 -0.993,-2.274 -0.993,-3.58c0,-1.189 0.273,-2.291 0.817,-3.304c0.544,-1.013 1.285,-1.855 2.223,-2.525c0.704,-0.519 1.663,-0.959 2.877,-1.319c1.214,-0.36 2.516,-0.54 3.907,-0.54c2.093,0 3.931,0.302 5.514,0.905c1.583,0.603 2.751,1.419 3.505,2.449c0.753,1.03 1.273,2.408 1.557,4.133l-4.421,0.603c-0.201,-1.374 -0.783,-2.445 -1.746,-3.216c-0.963,-0.77 -2.324,-1.156 -4.083,-1.156c-2.077,0 -3.559,0.344 -4.447,1.03c-0.887,0.687 -1.331,1.491 -1.331,2.412c-0,0.586 0.184,1.114 0.553,1.583c0.368,0.486 0.946,0.888 1.733,1.206c0.452,0.167 1.784,0.553 3.995,1.156c3.199,0.854 5.43,1.553 6.695,2.097c1.264,0.545 2.257,1.336 2.977,2.374c0.72,1.039 1.08,2.328 1.08,3.869c0,1.508 -0.439,2.927 -1.319,4.259c-0.879,1.331 -2.148,2.361 -3.806,3.09c-1.658,0.728 -3.534,1.093 -5.627,1.093c-3.467,-0 -6.109,-0.721 -7.927,-2.161c-1.817,-1.44 -2.977,-3.576 -3.479,-6.406Z" style="fill:#777;fill-rule:nonzero;"/><path d="M311.703,110.347l-0,-5.2l4.522,-0l-0,5.2l-4.522,0Zm-0,31.63l-0,-26.681l4.522,0l-0,26.681l-4.522,-0Z" style="fill:#777;fill-rule:nonzero;"/><path d="M323.108,141.977l0,-26.681l4.07,0l0,3.794c1.96,-2.931 4.79,-4.397 8.492,-4.397c1.608,0 3.086,0.289 4.434,0.867c1.348,0.578 2.357,1.336 3.027,2.274c0.67,0.938 1.139,2.051 1.407,3.341c0.168,0.837 0.251,2.303 0.251,4.396l0,16.406l-4.522,-0l0,-16.23c0,-1.842 -0.176,-3.22 -0.527,-4.132c-0.352,-0.913 -0.976,-1.642 -1.872,-2.186c-0.896,-0.544 -1.947,-0.817 -3.153,-0.817c-1.926,0 -3.588,0.612 -4.987,1.834c-1.398,1.223 -2.098,3.543 -2.098,6.959l0,14.572l-4.522,-0Z" style="fill:#777;fill-rule:nonzero;"/><path d="M350.894,144.187l4.397,0.654c0.184,1.356 0.695,2.344 1.532,2.964c1.122,0.838 2.655,1.256 4.598,1.256c2.093,0 3.71,-0.418 4.848,-1.256c1.139,-0.837 1.91,-2.01 2.312,-3.517c0.234,-0.921 0.343,-2.856 0.326,-5.803c-1.976,2.328 -4.438,3.492 -7.386,3.492c-3.668,-0 -6.507,-1.323 -8.516,-3.97c-2.01,-2.646 -3.015,-5.82 -3.015,-9.521c-0,-2.546 0.46,-4.895 1.382,-7.047c0.921,-2.152 2.256,-3.815 4.007,-4.987c1.75,-1.173 3.806,-1.759 6.167,-1.759c3.149,0 5.745,1.273 7.788,3.819l0,-3.216l4.171,0l-0,23.063c-0,4.154 -0.423,7.097 -1.269,8.831c-0.846,1.733 -2.186,3.102 -4.02,4.107c-1.834,1.005 -4.09,1.508 -6.77,1.508c-3.182,-0 -5.753,-0.716 -7.713,-2.148c-1.959,-1.432 -2.906,-3.589 -2.839,-6.47Zm3.744,-16.028c-0,3.501 0.695,6.055 2.085,7.663c1.39,1.607 3.132,2.411 5.225,2.411c2.077,0 3.819,-0.799 5.226,-2.399c1.407,-1.599 2.11,-4.107 2.11,-7.524c0,-3.266 -0.724,-5.728 -2.173,-7.386c-1.449,-1.658 -3.195,-2.487 -5.238,-2.487c-2.01,-0 -3.718,0.816 -5.125,2.449c-1.407,1.633 -2.11,4.057 -2.11,7.273Z" style="fill:#777;fill-rule:nonzero;"/></g></svg>